,
Brought to you by  http://www.scenetime.com/signup.php
 
 Hottest scene tracker on the net !!!   
 
No fake torrents from scenebalance 
shame on those who comment fake before downloading my torrents

    seed back for speed


 



...................................NFO:.................................................
                   _..._                          _..._    
                .-'_..._''.                    .-'_..._''.  
        .--.  .' .'      '.\                 .' .'      '.\
        |__| / .'                           / .'            
    .|  .--.. '               .|           . '              
  .' |_ |  || |             .' |_     __   | |              
.'     ||  || |           .'     | .:--.'. | |              
'--.  .-'|  |. '          '--.  .-'/ |   \ |. '              
  |  |  |  | \ '.          .|  |  `" __ | | \ '.          .
  |  |  |__|  '. `._____.-'/|  |   .'.''| |  '. `._____.-'/
  |  '.'        `-.______ / |  '.'/ /   | |_   `-.______ /  
  |   /                  `  |   / \ \._,\ '/            `  
  `'-'                      `'-'   `--'  `"                

_____ _____  ____   ____  ____  __  _  _____  ____
| ()_)| () )| ===| (_ (_`| ===||  \| ||_   _|(_ (_`
|_|   |_|\_\|____|.__)__)|____||_|\__|  |_| .__)__)



In Her Line Of Fire 2006 DVDRip TiCTaC

 
http://www.imdb.com/title/tt0487156/



     


When the Vice President's plane goes down near a remote Pacific island, he is kidnapped by rebel forces and held for ransom. It is up to his female Secret Service agent and a press secretary to infiltrate the camp and save him.


3.4/10 


Cast
Credited cast:
Mariel Hemingway 	Mariel Hemingway 	... 	
Sergeant Major Lynn Delaney
David Keith 	David Keith 	... 	
Vice President Walker
David Millbern 	David Millbern 	... 	
Armstrong
Jill Bennett 	Jill Bennett 	... 	
Sharon Serrano
Robbie Magasiva 	Robbie Magasiva 	... 	
Petelo
Stuart Devenie 	Stuart Devenie 	... 	
John Ellison
James Gaylyn 	James Gaylyn 	... 	
Admiral Winters
Alison Hofer 	Alison Hofer 	... 	
Olive
Rest of cast listed alphabetically:
Paul Dzenkiw 	Paul Dzenkiw 	... 	
Kindall
Jesse Hutch 	Jesse Hutch 	... 	
Rosen
Sydney Jackson 	Sydney Jackson 	... 	
Murphy
Patrick Kake 	Patrick Kake 	... 	
Hammer
Rene Naufahu 	Rene Naufahu 	... 	
Solia
Lee Tuson 	Lee Tuson 	... 	
Logan


Genres:
Action | Drama

Language:
English 


General
Complete name                    : G:\In Her Line Of Fire 2006 DVDRip TiCTaC\In Her Line Of Fire 2006 DVDRip TiCTaC.avi
Format                           : AVI
Format/Info                      : Audio Video Interleave
File size                        : 698 MiB
Duration                         : 1h 24mn
Overall bit rate                 : 1 159 Kbps
Writing application              : VirtualDubMod 1.5.10.2 (build 2540/release)
Writing library                  : VirtualDubMod build 2540/release

Video
ID                               : 0
Format                           : MPEG-4 Visual
Format profile                   : Advanced Simple@L5
Format settings, BVOP            : Yes
Format settings, QPel            : No
Format settings, GMC             : No warppoints
Format settings, Matrix          : Default (H.263)
Muxing mode                      : Packed bitstream
Codec ID                         : XVID
Codec ID/Hint                    : XviD
Duration                         : 1h 24mn
Bit rate                         : 959 Kbps
Width                            : 640 pixels
Height                           : 352 pixels
Display aspect ratio             : 16:9
Frame rate                       : 25.000 fps
Resolution                       : 8 bits
Colorimetry                      : 4:2:0
Scan type                        : Progressive
Bits/(Pixel*Frame)               : 0.170
Stream size                      : 578 MiB (83%)
Writing library                  : XviD 1.1.0 (UTC 2005-11-22)

Audio
ID                               : 1
Format                           : AC-3
Format/Info                      : Audio Coding 3
Codec ID                         : 2000
Duration                         : 1h 24mn
Bit rate mode                    : Constant
Bit rate                         : 192 Kbps
Channel(s)                       : 2 channels
Channel positions                : L R
Sampling rate                    : 48.0 KHz
Stream size                      : 116 MiB (17%)
Alignment                        : Split accross interleaves
Interleave, duration             : 80 ms (2.00 video frames)
Interleave, preload duration     : 500 ms